# xmcd CD database file
#
# Track frame offsets:
#	150
#	14761
#	29022
#	43763
#	59924
#	75243
#	91588
#	106015
#	121396
#	136558
#	153920
#	170641
#	184455
#	201194
#	222210
#
# Disc length: 3250 seconds
#
# Revision: 0
# Processed by: cddbd v1.5PL3 Copyright (c) Steve Scherf et al.
# Submitted via: freeDB plugin v1.0
#
DISCID=cb0cb00f
DTITLE=キャンデーｽﾞ - ベストコレクション
DYEAR=1900
DGENRE=Misc
TTITLE0=あなたに夢中
TTITLE1=そよ風のくちづけ
TTITLE2=危ない土曜日
TTITLE3=年下の男の子
TTITLE4=内気なあいさつ
TTITLE5=その気にさせないで
TTITLE6=ハートのエースが出てこない
TTITLE7=春一番
TTITLE8=夏が来た！
TTITLE9=哀愁のシンフォニー
TTITLE10=やさしい悪魔
TTITLE11=暑中お見舞い申し上げます
TTITLE12=アン・ドゥ・トロワ
TTITLE13=微笑がえし
TTITLE14=つばさ
EXTD=
EXTT0=
EXTT1=
EXTT2=
EXTT3=
EXTT4=
EXTT5=
EXTT6=
EXTT7=
EXTT8=
EXTT9=
EXTT10=
EXTT11=
EXTT12=
EXTT13=
EXTT14=
PLAYORDER=
